<?xml version="1.0" encoding="UTF-8"?>
<!DOCTYPE svg PUBLIC "-//W3C//DTD SVG 1.1//EN" "http://www.w3.org/Graphics/SVG/1.1/DTD/svg11.dtd">
<!-- Creator: CorelDRAW X7 -->
<svg xmlns="http://www.w3.org/2000/svg" xml:space="preserve" width="8.39741in" height="1.54333in" version="1.1" style="shape-rendering:geometricPrecision; text-rendering:geometricPrecision; image-rendering:optimizeQuality; fill-rule:evenodd; clip-rule:evenodd"
viewBox="0 0 7326 1346"
 xmlns:xlink="http://www.w3.org/1999/xlink">
 <defs>
  <style type="text/css">
   <![CDATA[
    .fil0 {fill:#000000}
   ]]>
  </style>
 </defs>
 <g id="Layer_x0020_1">
  <metadata id="CorelCorpID_0Corel-Layer"/>
  <path class="fil0" d="M31 1186c23,-13 50,-21 69,-38 349,-321 763,-532 1210,-661 1691,-484 3357,-412 4985,274 194,82 372,202 558,304 -4,16 -9,32 -13,47 -54,-1 -109,-2 -163,-5 -160,-8 -320,-19 -480,-27 -41,-2 -86,-5 -122,9 -28,11 -61,48 -62,75 -2,27 25,69 51,82 41,19 91,24 138,28 296,25 592,47 888,70 29,2 59,4 88,1 112,-12 162,-54 145,-159 -48,-281 -107,-560 -166,-839 -13,-65 -62,-103 -133,-84 -69,19 -92,74 -80,139 32,175 69,349 105,531 -25,-1 -44,4 -55,-3 -690,-467 -1464,-700 -2276,-828 -996,-156 -1988,-138 -2972,89 -483,111 -948,276 -1354,570 -124,89 -230,204 -341,310 -23,22 -34,56 -51,84 10,11 20,21 31,31z"/>
 </g>
</svg>
